# xmcd CD database file
#
# Track frame offsets:
#	150
#	14800
#	27427
#	44288
#	56132
#	72312
#	86666
#	107959
#	118789
#	135483
#	149106
#	160987
#	182149
#	195392
#
# Disc length: 2808 seconds
#
# Revision: 0
# Processed by: cddbd v1.5.1PL0 Copyright (c) Steve Scherf et al.
# Submitted via: CDex 1.51
#
DISCID=d60af60e
DTITLE=Terry Smith - Matters Of The Heart
DYEAR=2004
DGENRE=Country
TTITLE0=Matters Of The Heart
TTITLE1=Just Outside The Storm
TTITLE2=As A Rule
TTITLE3=Admit That You Were Wrong
TTITLE4=We Had The Spring
TTITLE5=Sharer Of My Heart
TTITLE6=All I've Ever Known
TTITLE7=Let Me Count The Ways
TTITLE8=I Bet She's Feeding Chickens
TTITLE9=Time Sure Takes Its Time
TTITLE10=Who's Gonna Pop A Pimple On My Posterior
TTITLE11=Making Perfect Music For The King
TTITLE12=My Baby Loves Me All The Time
TTITLE13=Home
EXTD=YEAR: 2004
EXTT0=
EXTT1=
EXTT2=
EXTT3=
EXTT4=
EXTT5=
EXTT6=
EXTT7=
EXTT8=
EXTT9=
EXTT10=
EXTT11=
EXTT12=
EXTT13=
PLAYORDER=
